<svg width="1632" height="383" viewBox="0 0 1632 383" fill="none" xmlns="http://www.w3.org/2000/svg">
<rect width="382.163" height="382.163" rx="191.082" fill="url(#paint0_linear_685_5825)"/>
<path fill-rule="evenodd" clip-rule="evenodd" d="M145.513 251.251L176.38 222.136C161.915 217.427 151.044 205.407 147.828 190.567C144.612 175.726 149.534 160.298 160.756 150.045L212.47 101.267C176.806 91.7129 139.13 107.025 120.302 138.725C101.475 170.425 106.102 210.757 131.622 237.39L145.513 251.251ZM263.07 140.487C266.999 147.55 269.849 155.159 271.527 163.062L271.484 163.125C277.308 189.824 269.437 217.664 250.49 237.39L191.06 296.675L161.419 267.011L218.502 213.148L219.327 212.389C229.959 202.216 234.603 187.302 231.623 172.907C228.642 158.512 218.456 146.657 204.654 141.521L236.114 111.858C247.28 119.094 256.528 128.916 263.07 140.487Z" fill="white"/>
<path d="M613.662 133.575L580.271 144.087C578.828 135.637 574.603 127.907 567.595 120.899C560.587 113.891 550.488 110.387 537.296 110.387C526.372 110.387 517.303 113.479 510.089 119.663C503.081 125.846 499.577 133.266 499.577 141.923C499.577 156.97 508.131 166.348 525.238 170.058L556.774 176.551C575.737 180.261 590.371 187.784 600.677 199.12C610.982 210.457 616.135 223.957 616.135 239.622C616.135 257.76 609.127 273.425 595.112 286.616C581.302 299.602 562.442 306.094 538.533 306.094C512.768 306.094 492.672 299.395 478.244 285.998C463.816 272.394 455.674 256.626 453.819 238.694L488.447 228.801C489.683 241.168 494.63 251.577 503.287 260.027C511.944 268.478 523.693 272.703 538.533 272.703C551.312 272.703 561.102 269.921 567.904 264.356C574.912 258.585 578.416 251.267 578.416 242.404C578.416 235.19 575.84 229.007 570.687 223.854C565.534 218.495 558.32 214.785 549.045 212.724L518.127 206.231C501.02 202.727 487.416 195.616 477.317 184.898C467.423 174.18 462.476 160.783 462.476 144.706C462.476 126.361 469.793 110.594 484.428 97.4022C499.062 84.2108 516.582 77.6151 536.987 77.6151C560.278 77.6151 578.107 83.2833 590.474 94.6196C602.841 105.75 610.57 118.735 613.662 133.575Z" fill="black"/>
<path d="M627.113 260.646C627.113 247.867 631.235 237.664 639.48 230.038C647.93 222.205 658.958 217.258 672.561 215.197L711.208 209.323C718.628 208.292 722.338 204.685 722.338 198.502C722.338 191.7 719.968 186.238 715.227 182.116C710.486 177.787 703.376 175.623 693.894 175.623C684.825 175.623 677.611 178.199 672.252 183.352C666.893 188.299 663.801 194.792 662.977 202.83L630.204 195.41C631.647 181.806 638.14 170.264 649.682 160.783C661.225 151.095 675.859 146.252 693.585 146.252C715.433 146.252 731.51 151.507 741.816 162.019C752.328 172.531 757.584 186.032 757.584 202.521V277.341C757.584 287.235 758.202 295.273 759.439 301.457H726.048C725.018 298.365 724.502 291.975 724.502 282.288C714.609 298.159 699.15 306.094 678.126 306.094C662.874 306.094 650.507 301.663 641.026 292.8C631.75 283.731 627.113 273.013 627.113 260.646ZM684.928 277.959C696.058 277.959 705.024 274.971 711.826 268.993C718.834 262.81 722.338 252.813 722.338 239.004V232.202L683.073 238.076C669.676 240.343 662.977 247.145 662.977 258.481C662.977 263.84 664.935 268.478 668.851 272.394C672.767 276.104 678.126 277.959 684.928 277.959Z" fill="black"/>
<path d="M851.085 108.223C845.108 108.223 839.852 109.975 835.317 113.479C830.989 116.777 828.825 122.651 828.825 131.102V150.889H863.761V182.116H828.825V301.457H792.651V182.116H766.372V150.889H792.651V130.175C792.651 113.479 797.495 100.288 807.183 90.6004C816.87 80.9129 829.546 76.0692 845.211 76.0692C853.662 76.0692 859.948 77.0998 864.071 79.1609V109.769C860.567 108.739 856.238 108.223 851.085 108.223Z" fill="black"/>
<path d="M903.532 209.632H977.425C977.012 200.151 973.611 192.215 967.222 185.826C961.038 179.436 952.072 176.241 940.324 176.241C929.606 176.241 920.949 179.642 914.353 186.444C907.757 193.04 904.15 200.769 903.532 209.632ZM981.444 248.897L1011.74 258.481C1007.41 272.291 999.273 283.731 987.318 292.8C975.569 301.663 961.038 306.094 943.725 306.094C922.289 306.094 904.047 298.777 889.001 284.143C874.161 269.509 866.74 249.928 866.74 225.4C866.74 202.315 873.955 183.352 888.383 168.512C903.017 153.672 920.227 146.252 940.014 146.252C963.099 146.252 981.135 153.363 994.12 167.585C1007.11 181.6 1013.6 200.563 1013.6 224.472C1013.6 230.862 1013.29 234.675 1012.67 235.912H902.605C903.017 247.248 907.139 256.626 914.971 264.047C923.01 271.467 932.594 275.177 943.725 275.177C963.099 275.177 975.672 266.417 981.444 248.897Z" fill="black"/>
<path d="M1218.73 301.457H1180.08L1071.87 135.43V301.457H1034.77V82.2527H1082.07L1181.63 237.767V82.2527H1218.73V301.457Z" fill="black"/>
<path d="M1282.85 261.264C1291.09 269.715 1301.09 273.94 1312.84 273.94C1324.59 273.94 1334.48 269.715 1342.52 261.264C1350.76 252.813 1354.89 241.065 1354.89 226.018C1354.89 211.178 1350.76 199.635 1342.52 191.391C1334.48 182.94 1324.59 178.715 1312.84 178.715C1301.09 178.715 1291.09 182.94 1282.85 191.391C1274.81 199.635 1270.79 211.178 1270.79 226.018C1270.79 240.859 1274.81 252.607 1282.85 261.264ZM1312.84 146.252C1335.51 146.252 1354.16 153.775 1368.8 168.821C1383.64 183.868 1391.06 202.933 1391.06 226.018C1391.06 249.103 1383.64 268.272 1368.8 283.524C1354.16 298.571 1335.51 306.094 1312.84 306.094C1290.37 306.094 1271.72 298.571 1256.88 283.524C1242.24 268.272 1234.93 249.103 1234.93 226.018C1234.93 202.933 1242.24 183.868 1256.88 168.821C1271.72 153.775 1290.37 146.252 1312.84 146.252Z" fill="black"/>
<path d="M1491.97 150.889H1529.07L1564.62 255.081L1594.61 150.889H1631.1L1582.87 301.457H1547L1509.59 193.246L1473.11 301.457H1436.32L1387.47 150.889H1425.8L1456.41 255.081L1491.97 150.889Z" fill="black"/>
<defs>
<linearGradient id="paint0_linear_685_5825" x1="51.5921" y1="57.3245" x2="321.017" y2="343.947" gradientUnits="userSpaceOnUse">
<stop stop-color="#0995FF"/>
<stop offset="1" stop-color="#0034E3"/>
</linearGradient>
</defs>
</svg>
